<svg version="1.1" id="schalkneethling" xmlns="http://www.w3.org/2000/svg" x="0" y="0" viewBox="0 0 200 200" style="enable-background:new 0 0 200 200" xml:space="preserve"><style>.st0{fill:#243247}</style><path class="st0" d="M14.4 160.2c-.7-.4-1.5-.6-2.4-.6-.3 0-.7.1-1 .2-.2.1-.4.4-.4.6 0 .1 0 .2.1.4.1.1.2.2.3.2.2.1.4.2.6.2l1 .2c1 .1 2 .6 2.7 1.3.6.6.9 1.5.9 2.4 0 .7-.1 1.3-.4 1.9-.3.6-.7 1.1-1.2 1.4-.6.4-1.2.7-1.9.9-.8.2-1.6.3-2.4.3-1.7 0-3.4-.5-4.9-1.4l1.6-3.1c1 .8 2.2 1.2 3.5 1.2.4 0 .7-.1 1-.3.2-.1.4-.4.4-.7 0-.1 0-.3-.1-.4-.1-.1-.1-.2-.2-.3-.2-.1-.4-.2-.6-.2-.2-.1-.6-.1-1-.2-1-.1-2-.5-2.8-1.2-.6-.6-.9-1.4-.8-2.2 0-.6.1-1.3.4-1.9.3-.5.6-1 1.1-1.4.5-.4 1.1-.7 1.7-.9.7-.2 1.5-.3 2.3-.3 1.4 0 2.7.3 4 .8l-1.5 3.1zm12.2.8c-.7-.5-1.5-.8-2.3-.8-.4 0-.8.1-1.2.2-.4.1-.7.3-1 .6-.3.3-.5.6-.6.9-.3.8-.3 1.6 0 2.4.1.4.4.7.6.9.3.3.6.5 1 .6.4.2.8.2 1.2.2.8 0 1.6-.3 2.3-.8v3.7c-1 .4-2 .7-3.1.7-.9 0-1.7-.2-2.6-.5-.8-.3-1.5-.7-2.1-1.3-.6-.6-1.1-1.2-1.5-2-.4-.8-.6-1.7-.6-2.7 0-.9.2-1.8.5-2.7.3-.8.8-1.5 1.5-2.1.6-.6 1.4-1.1 2.2-1.4.9-.3 1.8-.5 2.7-.5 1 0 2 .2 2.9.7l.1 3.9zm1.9-11.6h4.3v9.2c.5-.6 1.1-1.1 1.8-1.5.7-.3 1.4-.4 2.1-.4 1.3-.1 2.6.4 3.5 1.3.8 1 1.2 2.2 1.2 3.5v7.8h-4.3v-6.2c0-.5 0-1-.2-1.5-.1-.3-.2-.6-.5-.9-.4-.3-.9-.5-1.4-.5-.6 0-1.3.2-1.7.7-.4.5-.6 1.2-.6 1.9v6.6h-4.3v-20zm24.2 7.6h4.4v12.3h-4.4V168c-.9 1.1-2.3 1.8-3.7 1.8-1.7 0-3.3-.7-4.5-1.9-.6-.6-1-1.3-1.3-2.1-.3-.8-.5-1.7-.5-2.6 0-.9.2-1.7.5-2.5s.7-1.5 1.3-2.1c.6-.6 1.2-1.1 2-1.4.8-.3 1.6-.5 2.5-.5 1.4 0 2.8.5 3.8 1.6l-.1-1.3zm-5.4 6.1c0 .4.1.8.2 1.1.1.3.3.6.6.9.3.3.6.5.9.6.4.1.7.2 1.1.2.4 0 .8-.1 1.1-.2.3-.1.6-.3.9-.6.3-.3.5-.6.6-.9.1-.3.2-.7.2-1.1 0-.4-.1-.8-.2-1.1l-.6-.9c-.3-.3-.6-.5-.9-.6-.3-.1-.7-.2-1.1-.2-.4 0-.8.1-1.1.2-.3.1-.6.3-.9.6l-.6.9c-.2.4-.2.8-.2 1.1zm15.9-13.7v19.9h-4.3v-19.9h4.3zm6.1 0v12.1l4.6-4.4h6l-6.2 5.7 6.5 6.6H74l-4.8-5v5H65v-19.9l4.3-.1zm18.3 7.6h4.3v1.6c.5-.6 1.1-1.1 1.8-1.5.7-.3 1.4-.4 2.1-.4.8 0 1.5.1 2.2.4.6.3 1.2.7 1.6 1.2.3.4.6.9.7 1.4.1.6.2 1.2.2 1.8v7.8h-4.4v-6.2c0-.5 0-1-.1-1.5-.1-.3-.2-.7-.5-.9-.2-.2-.4-.3-.7-.4-.2-.1-.5-.1-.8-.1-.6 0-1.3.2-1.7.7-.4.5-.6 1.2-.6 1.9v6.6h-4.3V157zm18.6 6.9c0 1.9.9 2.8 2.7 2.8.9 0 1.7-.4 2.1-1.1h4.2c-.8 2.8-3 4.2-6.4 4.2-1 0-1.9-.1-2.9-.5-.8-.3-1.6-.7-2.2-1.3-.6-.6-1.1-1.3-1.4-2.1-.3-.9-.5-1.8-.5-2.7 0-.9.1-1.9.5-2.8.3-.8.8-1.5 1.4-2.1.6-.6 1.4-1 2.2-1.3.9-.3 1.9-.5 2.8-.5 1 0 1.9.1 2.8.5.8.3 1.5.8 2.1 1.4.6.6 1.1 1.4 1.3 2.2.3.9.5 1.9.4 2.9v.5l-9.1-.1zm5.1-2.5c-.1-.6-.4-1.1-.9-1.5-1-.7-2.3-.7-3.3 0-.4.4-.7.9-.8 1.5h5zm9.3 2.5c0 1.9.9 2.8 2.7 2.8.9 0 1.7-.4 2.1-1.1h4.2c-.8 2.8-3 4.2-6.4 4.2-1 0-1.9-.1-2.9-.5-.8-.3-1.6-.7-2.2-1.3-.6-.6-1.1-1.3-1.4-2.1-.3-.9-.5-1.8-.5-2.7 0-.9.2-1.9.5-2.8.3-.8.8-1.5 1.4-2.1.6-.6 1.3-1.1 2.2-1.3.9-.3 1.9-.5 2.8-.5 1 0 1.9.1 2.8.5.8.3 1.5.8 2.1 1.4.6.6 1.1 1.4 1.3 2.2.3.9.5 1.9.4 2.9v.5l-9.1-.1zm5.1-2.5c-.1-.6-.4-1.1-.9-1.5-1-.7-2.3-.7-3.3 0-.4.4-.7.9-.8 1.5h5zm10.3-.8v8.7h-4.4v-8.7h-1.4V157h1.4v-3.7h4.4v3.7h2.5v3.6H136zm3.5-11.2h4.4v9.2c.5-.6 1.1-1.1 1.8-1.4.7-.3 1.4-.4 2.1-.4 1.3-.1 2.6.4 3.5 1.3.8 1 1.3 2.2 1.2 3.5v7.8h-4.4v-6.2c0-.5 0-1-.1-1.5-.1-.3-.2-.6-.5-.9-.4-.3-.9-.5-1.4-.5-.6 0-1.3.2-1.7.7-.4.5-.6 1.2-.6 1.9v6.6h-4.4l.1-20.1zm19.1 0v19.9h-4.4v-19.9h4.4zm1.5 2.9c0-.3.1-.6.2-.9.1-.3.3-.6.5-.8.2-.2.5-.4.8-.5.3-.1.6-.2.9-.2.6 0 1.3.3 1.7.7.2.2.4.5.5.8.3.6.3 1.3 0 1.9-.1.3-.3.6-.5.8-.2.2-.5.4-.8.5-.3.1-.7.2-1 .2-.7 0-1.3-.3-1.7-.7-.2-.2-.4-.5-.5-.8-.1-.4-.1-.7-.1-1zm4.6 4.7v12.3h-4.4V157h4.4zm1.8 0h4.4v1.6c.5-.6 1.1-1.1 1.8-1.4.7-.3 1.4-.4 2.1-.4.8 0 1.5.1 2.2.4.6.3 1.2.7 1.6 1.2.3.4.6.9.7 1.4.1.6.2 1.2.2 1.8v7.8h-4.4v-6.2c0-.5 0-1-.1-1.5-.1-.3-.2-.7-.5-.9-.2-.2-.4-.3-.6-.4-.2-.1-.5-.1-.8-.1-.6 0-1.3.2-1.7.7-.4.5-.6 1.2-.6 1.9v6.6h-4.4V157zm28.6 0v11.5c0 .6 0 1.2-.1 1.9-.1.5-.2 1-.3 1.4-.2.5-.5 1.1-.9 1.5-.4.5-.9.9-1.5 1.2-.6.4-1.3.6-2 .8-.8.2-1.6.3-2.4.3-.9 0-1.8-.1-2.6-.4-.8-.2-1.5-.6-2.1-1-.6-.4-1.1-.9-1.5-1.5-.4-.6-.7-1.2-.8-1.9h4.9c.3.8 1.2 1.3 2.1 1.2.8 0 1.5-.2 2.1-.8.5-.6.8-1.4.7-2.1V168c-.3.3-.6.5-.9.8-.3.2-.6.4-.9.5-.3.1-.7.2-1 .3-.4.1-.7.1-1.1.1-.8 0-1.7-.1-2.4-.5-.7-.3-1.4-.7-1.9-1.3-.6-.6-1-1.3-1.2-2-.3-.8-.5-1.7-.4-2.5 0-.9.2-1.8.5-2.6s.7-1.5 1.3-2.1c.6-.6 1.2-1.1 2-1.4.8-.3 1.6-.5 2.5-.5 1.4 0 2.7.6 3.7 1.6V157h4.2zm-9.8 6.1c0 .4.1.8.2 1.1.1.3.3.6.6.9.3.3.6.5.9.6.4.1.7.2 1.1.2.4 0 .7-.1 1.1-.2.3-.1.6-.3.9-.6.3-.3.5-.6.6-.9.3-.7.3-1.5 0-2.2-.1-.3-.4-.6-.6-.9-.3-.3-.6-.5-.9-.6-.3-.1-.7-.2-1.1-.2-.4 0-.7.1-1.1.2-.3.1-.6.3-.9.6-.3.3-.5.5-.6.9-.1.4-.2.7-.2 1.1z" id="schalkneethling-2"/><path class="st0" d="M164 24.4v74l-58-73.9v47l58 73.8h31.3v-121H164zm-80 25c-3.4-1.4-7.1-2.2-10.9-2.2-4.4 0-8.1 1.1-10.9 3.2-2.7 1.9-4.3 5.1-4.2 8.5-.1 2.2.7 4.3 2.1 5.9 1.6 1.7 3.5 3 5.5 4 2.5 1.2 5.1 2.2 7.7 3 2.9.8 5.7 1.7 8.5 2.7 4.2 1.4 8.2 3.2 12.1 5.3V55.3c-2.9-2.4-6.3-4.4-9.9-5.9zm-52.7 67.8c4.5 4.2 9.7 7.8 15.3 10.4 4.7 2.2 9.8 3.4 14.9 3.4 5.6 0 9.8-1.3 12.6-3.9 2.6-2.3 4.1-5.5 4.1-9 0-1.8-.3-3.6-1.1-5.3-.8-1.6-2-3.1-3.5-4.1-2-1.4-4.1-2.6-6.4-3.5-2.6-1.1-5.8-2.3-9.6-3.6-4.5-1.4-8.8-3-13.1-4.7-4.2-1.7-8-4-11.4-6.9-3.4-3-6.2-6.7-8.1-10.9-2-4.5-3-10-3-16.7-.1-6.2 1-12.4 3.2-18.2 2-5.3 5.1-10 9.1-14 2.2-2.1 4.6-4 7.2-5.6H4.8v120.8h11.9l14.6-28.2z"/><path d="M106 142.4H82.9l11.5-20 11.5-20 11.5 20 11.5 20H106z" style="fill:#e5e528"/></svg>
