<svg xmlns="http://www.w3.org/2000/svg" width="130" height="130" fill="none"><path fill="url(#a)" d="M65 2.488C30.475 2.488 2.488 30.475 2.488 65c0 34.525 27.99 62.512 62.512 62.512 1.651 0 3.281-.083 4.898-.208 7.166-2.603 10.177-7.974 8.427-13.798-1.71-5.694-5.938-7.969-15.111-8.661-10.998-.538-18.689-3.84-21.268-12.425-.954-3.175-.923-6.334-.047-9.275v-53.37H50.7l20.01 31.588c4.633 7.319 8.244 13.894 11.208 20.287l.185-.093c-.741-8.338-.926-15.933-.926-25.66V29.775h7.597v62.437h-8.15L70.417 75.904c-2.41-.468-6.812-.923-12.056.653-5.55 1.667-8.13 4.862-8.863 8.04v4c.041.18.08.36.132.531 1.709 5.691 6.256 7.379 15.634 8.11 11.495.88 18.226 4.276 20.915 13.22 1.417 4.719.972 9.641-1.63 13.921 24.946-8.208 42.964-31.684 42.964-59.379 0-34.525-27.989-62.512-62.511-62.512H65Z"/><path fill="url(#b)" d="M56.677 69.971c3.453-1.037 6.495-1.458 9.077-1.518l-4.958-7.922c-4.355-6.948-8.523-14.082-11.672-20.845l-.278.094c.463 7.873.648 15.376.648 25.753v7.782c2.054-1.376 4.446-2.52 7.18-3.341l.003-.003Z"/><defs><linearGradient id="a" x1="2.488" x2="127.512" y1="65" y2="65" gradientUnits="userSpaceOnUse"><stop stop-color="#692C91"/><stop offset="1" stop-color="#B04198"/></linearGradient><linearGradient id="b" x1="48.846" x2="65.754" y1="56.501" y2="56.501" gradientUnits="userSpaceOnUse"><stop stop-color="#692C91"/><stop offset="1" stop-color="#B04198"/></linearGradient></defs></svg>
