<?xml version="1.0" standalone="no"?>
<!DOCTYPE svg PUBLIC "-//W3C//DTD SVG 20010904//EN"
 "http://www.w3.org/TR/2001/REC-SVG-20010904/DTD/svg10.dtd">
<svg version="1.0" xmlns="http://www.w3.org/2000/svg"
 width="1000.000000pt" height="1000.000000pt" viewBox="0 0 1000.000000 1000.000000"
 preserveAspectRatio="xMidYMid meet">
<metadata>
Created by potrace 1.14, written by Peter Selinger 2001-2017
</metadata>
<g transform="translate(0.000000,1000.000000) scale(0.100000,-0.100000)"
fill="#000000" stroke="none">
<path d="M184 8051 c-2 -2 -4 -1378 -4 -3057 l0 -3053 258 -3 c361 -4 344 -6
369 45 18 38 101 199 249 482 29 55 80 154 114 220 34 66 94 181 133 255 39
74 103 198 143 275 40 77 77 140 83 140 6 0 36 -22 67 -50 32 -27 67 -56 78
-64 12 -8 23 -17 26 -21 46 -53 432 -310 467 -310 6 0 13 -3 15 -7 3 -9 116
-64 121 -60 2 1 14 -5 27 -14 23 -14 183 -76 220 -84 8 -2 51 -13 95 -25 238
-62 530 -69 720 -18 22 5 47 12 55 13 8 2 16 4 18 5 1 2 5 3 10 4 4 1 29 12
56 24 27 12 50 22 52 22 2 0 24 14 51 32 64 43 148 130 194 201 33 50 46 80
76 167 12 34 16 80 16 175 0 173 -53 296 -178 417 -37 36 -183 128 -267 168
-126 60 -672 266 -758 285 -8 2 -46 15 -85 30 -38 14 -88 32 -110 40 -62 20
-176 64 -222 85 -24 11 -47 20 -53 20 -27 0 -350 168 -390 203 -11 9 -23 17
-26 17 -3 0 -42 28 -87 62 -98 74 -256 230 -318 313 -24 33 -47 62 -51 63 -5
2 -8 8 -8 12 0 5 -12 26 -26 47 -85 124 -171 335 -209 513 -12 60 -17 88 -31
182 -23 164 -23 555 1 676 2 10 6 43 10 72 4 29 9 62 11 74 12 68 17 87 31
146 16 69 66 231 82 265 8 17 20 48 26 65 9 27 33 79 70 152 59 117 68 132 83
141 6 4 12 13 12 18 0 11 97 156 116 174 6 6 30 34 54 64 61 75 241 251 256
251 4 0 21 12 39 28 18 15 56 43 84 62 28 19 61 42 72 50 18 13 -81 15 -906
15 -510 0 -928 -2 -931 -4z"/>
<path d="M8238 8048 c-2 -7 -3 -847 -3 -1865 1 -1019 -2 -1853 -6 -1853 -4 0
-9 4 -11 9 -1 4 -16 25 -33 46 -40 50 -160 203 -185 235 -41 52 -193 247 -220
280 -16 19 -65 82 -110 140 -45 58 -92 119 -106 135 -36 46 -376 478 -401 511
-24 31 -27 36 -130 165 -37 47 -79 101 -93 120 -14 18 -35 44 -47 57 -13 12
-23 25 -23 29 0 3 -14 22 -30 42 -17 20 -34 41 -38 46 -15 21 -117 150 -122
155 -3 3 -18 23 -35 45 -16 22 -35 46 -42 53 -7 7 -27 33 -44 57 -18 25 -36
45 -41 45 -4 0 -8 6 -8 13 0 6 -12 26 -28 42 -15 17 -47 57 -72 90 -25 33 -47
62 -50 65 -8 8 -53 63 -80 100 -26 35 -107 137 -141 180 -12 14 -40 50 -62 80
-23 30 -44 57 -48 60 -3 3 -70 88 -149 190 -79 102 -150 189 -157 193 -7 4
-13 12 -13 17 0 11 -127 171 -144 182 -6 4 -8 8 -4 8 7 0 -10 24 -38 54 -6 6
-26 32 -46 57 -19 26 -41 54 -49 63 -27 32 -34 41 -77 99 -23 31 -44 57 -46
57 -1 0 -3 -535 -3 -1189 l0 -1188 26 -31 c14 -16 51 -62 81 -102 30 -39 62
-80 70 -90 8 -9 26 -32 40 -50 14 -18 30 -38 35 -44 6 -6 35 -44 65 -83 30
-40 58 -73 62 -73 5 0 8 -4 8 -10 0 -8 48 -71 183 -240 7 -8 28 -35 47 -60 19
-25 40 -52 47 -60 13 -15 112 -141 281 -358 161 -206 232 -296 245 -312 17
-21 192 -243 236 -301 83 -107 246 -314 251 -319 3 -3 24 -30 48 -60 23 -30
45 -59 50 -65 29 -37 156 -198 228 -290 48 -60 99 -126 115 -145 44 -56 192
-244 219 -280 36 -48 144 -184 150 -190 3 -3 19 -23 35 -45 16 -22 37 -49 46
-60 23 -27 139 -175 164 -209 11 -15 29 -38 40 -51 11 -12 52 -64 90 -113 l70
-91 68 -1 c61 0 974 -1 1357 0 l160 0 0 3060 0 3060 -789 0 c-622 0 -790 -3
-793 -12z"/>
<path d="M3668 6915 c-1 -2 -43 -5 -93 -6 -218 -8 -400 -78 -540 -207 -49 -46
-115 -141 -115 -166 0 -8 -4 -17 -9 -20 -14 -9 -34 -124 -34 -196 1 -206 104
-348 352 -484 46 -25 89 -46 95 -46 7 0 16 -4 22 -9 14 -12 179 -75 264 -100
84 -25 110 -33 295 -91 72 -23 139 -45 150 -50 11 -4 56 -20 100 -35 98 -32
270 -104 388 -162 48 -24 91 -43 96 -43 5 0 14 -7 21 -15 36 -44 37 -32 38
588 0 331 -2 609 -4 618 -4 14 -106 99 -120 99 -3 0 -10 5 -17 10 -45 40 -320
188 -367 198 -8 2 -33 12 -55 22 -23 11 -53 21 -66 24 -13 3 -49 12 -79 21
-30 9 -68 18 -85 21 -16 2 -39 7 -51 9 -11 2 -52 7 -90 10 -38 4 -74 8 -81 10
-6 2 -13 2 -15 0z"/>
<path d="M5260 4038 c-23 -40 -51 -85 -61 -100 -10 -15 -19 -29 -19 -32 0 -3
-22 -43 -49 -88 -27 -46 -58 -100 -70 -121 -12 -21 -87 -151 -167 -290 -81
-139 -155 -268 -166 -287 -11 -19 -27 -48 -37 -65 -30 -50 -212 -367 -239
-415 -14 -25 -35 -61 -47 -80 -12 -19 -33 -55 -47 -80 -24 -43 -78 -138 -98
-170 -35 -57 -120 -209 -120 -213 0 -3 524 -5 1165 -5 641 0 1164 3 1161 6 -2
4 -38 67 -81 141 -43 74 -85 149 -95 167 -10 17 -37 62 -59 99 -23 37 -41 70
-41 74 0 3 -11 22 -23 41 -13 19 -35 56 -49 81 -14 25 -77 133 -138 240 -123
212 -142 245 -175 304 -13 22 -62 107 -109 188 -47 82 -86 152 -86 158 0 5 -4
9 -9 9 -5 0 -11 8 -14 18 -4 9 -18 37 -33 62 -14 25 -76 131 -136 235 -61 105
-112 191 -113 193 -2 2 -22 -29 -45 -70z"/>
</g>
</svg>
