<?xml version="1.0" standalone="no"?>
<!DOCTYPE svg PUBLIC "-//W3C//DTD SVG 20010904//EN"
 "http://www.w3.org/TR/2001/REC-SVG-20010904/DTD/svg10.dtd">
<svg version="1.0" xmlns="http://www.w3.org/2000/svg"
 width="700.000000pt" height="700.000000pt" viewBox="0 0 700.000000 700.000000"
 preserveAspectRatio="xMidYMid meet">
<metadata>
Created by potrace 1.14, written by Peter Selinger 2001-2017
</metadata>
<g transform="translate(0.000000,700.000000) scale(0.100000,-0.100000)"
fill="#000000" stroke="none">
<path d="M3385 6863 c-602 -15 -1236 -219 -1750 -561 -362 -242 -702 -582
-939 -940 -535 -808 -696 -1798 -446 -2737 113 -425 315 -831 597 -1197 96
-123 404 -439 523 -535 653 -525 1450 -790 2270 -753 133 6 137 7 221 47 156
76 275 188 333 313 102 219 23 536 -168 678 -140 104 -301 147 -651 177 -215
19 -328 36 -455 72 -305 85 -501 235 -611 468 -83 176 -108 371 -70 552 21
100 21 117 21 1527 l0 1426 234 0 234 0 553 -872 c735 -1160 824 -1308 1028
-1717 56 -112 104 -201 106 -199 3 2 -2 92 -10 199 -26 350 -35 770 -35 1687
l0 902 205 0 205 0 0 -1685 0 -1685 -218 0 -218 0 -275 440 c-151 242 -281
442 -289 445 -45 15 -250 23 -352 15 -354 -31 -623 -172 -723 -381 -35 -73
-35 -74 -35 -212 0 -136 1 -139 34 -210 75 -162 192 -249 403 -301 121 -30
192 -41 403 -61 193 -18 264 -29 380 -56 346 -80 560 -234 685 -492 69 -144
96 -249 102 -404 8 -177 -18 -304 -89 -445 -15 -32 -23 -58 -18 -58 6 0 75 25
153 56 426 169 794 406 1114 717 576 561 920 1263 1008 2059 18 166 21 520 5
678 -69 681 -332 1313 -762 1830 -126 151 -366 385 -509 496 -635 495 -1378
737 -2194 717z"/>
<path d="M2634 4778 c12 -157 25 -665 31 -1188 4 -288 8 -526 10 -528 2 -2 16
5 32 16 148 104 496 214 729 229 52 3 94 10 94 14 0 5 -97 164 -216 355 -255
409 -438 727 -572 991 -53 106 -101 193 -106 193 -5 0 -6 -36 -2 -82z"/>
</g>
</svg>
