<svg xmlns="http://www.w3.org/2000/svg" viewBox="0 0 500 159.55" role="img"><defs><style>.cls-1{fill:#231f20}</style></defs><path class="cls-1" d="M55 135.05l19.08-10.44v2L57 135.74v.09L74.11 145v2L55 136.52zM78.6 144.31a8.74 8.74 0 0 0 4.53 1.4c3.18 0 4.69-1.75 4.69-3.85s-1.34-3.4-4.25-4.54c-3.29-1.28-5.11-3.08-5.11-5.53 0-2.91 2.29-5.46 6.21-5.46a8 8 0 0 1 4.47 1.28l-.8 1.63a6.72 6.72 0 0 0-4-1.22c-2.56 0-3.93 1.65-3.93 3.49 0 2.11 1.43 3 4.18 4.14 3.26 1.29 5.19 2.91 5.19 6 0 3.46-2.68 5.79-6.8 5.79a9.89 9.89 0 0 1-5.13-1.4zM108 146.08a13.16 13.16 0 0 1-5.9 1.32c-5.8 0-9.68-4.23-9.68-10.29 0-6.42 4.37-10.78 10.4-10.78a10.49 10.49 0 0 1 5.29 1.25l-.71 1.66a9.36 9.36 0 0 0-4.78-1.18c-5.41 0-8.18 4.14-8.18 8.89 0 5.28 3.33 8.73 8 8.73a11.46 11.46 0 0 0 5-1.17zM111.71 132.84c0-2-.06-4.09-.17-6h1.85l.09 4.1h.11c.89-2.55 3-4.56 5.73-4.56a3.18 3.18 0 0 1 .82.1v1.91a4.22 4.22 0 0 0-1-.07c-2.76 0-4.75 2.41-5.29 5.64a10.72 10.72 0 0 0-.17 1.92V147h-2zM126 121a1.62 1.62 0 1 1-3.23 0 1.7 1.7 0 0 1 1.63-1.75A1.64 1.64 0 0 1 126 121zm-2.64 26v-20.21h2V147zM131.07 133.23c0-2.52-.06-4.52-.16-6.44h1.91l.14 3.83h.09a8 8 0 0 1 7.43-4.29c5.18 0 8.68 4.29 8.68 10.21 0 7.21-4.3 10.88-9.17 10.88a7.65 7.65 0 0 1-6.84-3.73h-.08v11.58h-2zm2 5.79a7.07 7.07 0 0 0 .18 1.6 6.8 6.8 0 0 0 6.63 5.14c4.63 0 7.26-3.76 7.26-9.14 0-4.53-2.53-8.63-7.1-8.63a7 7 0 0 0-6.68 5.38 7.83 7.83 0 0 0-.29 1.72zM156 121v5.84h5.75v1.62H156v13.11c0 2.56.8 4.17 3 4.17a7 7 0 0 0 2.29-.32l.24 1.54a7 7 0 0 1-2.78.49 4.29 4.29 0 0 1-3.48-1.43c-.91-1.06-1.22-2.75-1.22-4.81v-12.8h-3.41v-1.62H154v-5.18zM167.76 121a1.62 1.62 0 1 1-3.23 0 1.7 1.7 0 0 1 1.62-1.75 1.64 1.64 0 0 1 1.61 1.75zm-2.61 26v-20.21h2V147zM172.87 131.61c0-1.84-.06-3.23-.16-4.82h1.85l.15 3.65h.09a7.59 7.59 0 0 1 6.94-4.11c1.92 0 7 1 7 8.54V147h-2v-11.95c0-3.68-1.42-7-5.59-7a6.48 6.48 0 0 0-6.05 4.64 7 7 0 0 0-.27 1.8V147h-2zM210.57 126.79c-.1 1.5-.17 3.1-.17 5.21v12c0 5.16-1.06 7.73-2.76 9.33a10 10 0 0 1-6.83 2.39 11.42 11.42 0 0 1-6.4-1.74l.71-1.6a10.83 10.83 0 0 0 6 1.68c4.23 0 7.29-2.2 7.29-8.17v-2.85h-.09a7.57 7.57 0 0 1-7 3.9c-5.06 0-8.64-4.42-8.64-9.9 0-7 4.61-10.73 9.08-10.73a7.07 7.07 0 0 1 6.77 3.87h.09l.11-3.41zm-2.16 7.75a6.39 6.39 0 0 0-6.52-6.55c-4.27 0-7.21 3.51-7.21 8.84 0 4.54 2.39 8.47 7.15 8.47a6.59 6.59 0 0 0 6.22-4.57 6.66 6.66 0 0 0 .36-2.13zM224 134.53v1.76h-10v-1.76zM245.66 136.69c0 7.53-5.15 10.73-9.65 10.73-5.22 0-9.24-4-9.24-10.39 0-6.9 4.52-10.7 9.53-10.7 5.57 0 9.36 4.18 9.36 10.36zm-16.87.25c0 5 3.21 8.82 7.36 8.82s7.5-3.81 7.5-9c0-3.69-2.08-8.79-7.4-8.79-5.13.03-7.46 4.62-7.46 8.97zM249.73 131.61c0-1.84-.06-3.23-.17-4.82h1.86l.15 3.65h.08a7.62 7.62 0 0 1 7-4.11c1.92 0 7 1 7 8.54V147h-2v-11.95c0-3.68-1.42-7-5.59-7a6.47 6.47 0 0 0-6.05 4.64 6.55 6.55 0 0 0-.27 1.8V147h-2zM279.05 134.53v1.76h-10v-1.76zM297.4 146.08a13.07 13.07 0 0 1-5.89 1.32c-5.8 0-9.68-4.23-9.68-10.29 0-6.42 4.37-10.78 10.4-10.78a10.49 10.49 0 0 1 5.29 1.25l-.71 1.66a9.39 9.39 0 0 0-4.78-1.18c-5.41 0-8.18 4.14-8.18 8.89 0 5.28 3.32 8.73 8 8.73a11.46 11.46 0 0 0 5-1.17zM312.14 147l-.3-2.89h-.09a7.64 7.64 0 0 1-6.43 3.35c-4.05 0-5.93-2.86-5.93-5.55 0-4.65 4.09-7.45 12.29-7.37V134c0-2-.38-6-5.15-5.95a8.91 8.91 0 0 0-5.06 1.5l-.63-1.45a10.84 10.84 0 0 1 5.91-1.74c5.82 0 6.93 4.37 6.93 8v7.87A33.13 33.13 0 0 0 314 147zm-.46-10.78c-4.39-.12-10.18.54-10.18 5.38a3.84 3.84 0 0 0 4 4.2 6.06 6.06 0 0 0 6-4 3.76 3.76 0 0 0 .21-1.21zM331 147v-18.59h-9.74V147h-2v-18.59h-2.9v-1.62h2.9V126c0-3.14.72-5.6 2.24-7.15a5.9 5.9 0 0 1 4.4-1.67 5.78 5.78 0 0 1 3 .82l-.7 1.55a5 5 0 0 0-2.5-.68c-3.51 0-4.44 3.06-4.44 6.94v1H331v-1.1c0-3.11.6-5.62 2.23-7.26a6.7 6.7 0 0 1 7.49-1.07l-.63 1.57a5.2 5.2 0 0 0-2.56-.57c-3.75 0-4.53 3.46-4.53 7.3v1.13h5.4v1.62H333V147zM340.55 136.69c0 6.43 3.5 9 7.66 9a11.64 11.64 0 0 0 5.61-1.15l.51 1.58a13.53 13.53 0 0 1-6.33 1.28c-5.8 0-9.4-4.22-9.4-10.13 0-6.73 3.86-10.94 9.06-10.94 6.61 0 7.86 6.21 7.86 9.12a7.29 7.29 0 0 1-.06 1.24zm12.85-1.6c.05-2.81-1.12-7.1-6-7.1-4.43 0-6.35 4-6.72 7.1zM362.18 121a1.62 1.62 0 1 1-3.24 0 1.7 1.7 0 0 1 1.63-1.75 1.64 1.64 0 0 1 1.61 1.75zm-2.62 26v-20.21h2V147zM367.29 131.61c0-1.84-.06-3.23-.17-4.82H369l.15 3.65h.08a7.59 7.59 0 0 1 6.94-4.11c1.92 0 7 1 7 8.54V147h-2v-11.95c0-3.68-1.41-7-5.58-7a6.54 6.54 0 0 0-6.33 6.44V147h-2zM389.05 136.69c0 6.43 3.51 9 7.67 9a11.67 11.67 0 0 0 5.61-1.15l.51 1.58a13.53 13.53 0 0 1-6.36 1.29c-5.8 0-9.4-4.22-9.4-10.13 0-6.73 3.85-10.94 9.06-10.94 6.61 0 7.86 6.21 7.86 9.12a7.29 7.29 0 0 1-.06 1.24zm12.86-1.6c0-2.81-1.12-7.1-6-7.1-4.43 0-6.35 4-6.72 7.1zM412.34 148.64l13.38-30.46h2l-13.47 30.46zM448.57 136.52L429.5 147v-2l17.13-9.17v-.09l-17.13-9.18v-2L448.57 135z"/><path d="M238.07 66.11c0 5.66-4.4 10-10.52 10S217 71.77 217 66.11a10.16 10.16 0 0 1 10.52-10.2c6.15 0 10.55 4.4 10.55 10.2zm42.23-1.56c-4.39 0-7.06 3.76-8.63 11-.16.47-2.51 1.89-4.71 1.89-4.56 0-8.48-3.3-8.48-9C258.48 62 264 55.6 274 55.6c11.61 0 20.72 12.08 22.92 20.4l-2.36 1c-3.74-8.06-8.76-12.45-14.26-12.45z" fill="#91192f"/><path class="cls-1" d="M178.25 51.28c.47-12.56 5.49-28.42 25.28-28.42 10 0 18.05 1.1 29.36 1.1 11 0 16.64-3 17.58-17.9h3c1.25 14.29 7.22 17.9 17.42 17.9 11.47 0 22-1.1 31.88-1.1 19.94 0 25.91 17 26.22 28.42h-2.67c-1.57-13.19-10.52-14.76-18.06-14.76-9.57 0-22.61 1.41-33.13 1.41-11.77 0-20.72-8.48-22.92-21h-.63c-2.2 11.93-10.36 21-22.77 21-10.67 0-18.52-1.41-30-1.41-9.42 0-16.48 2.35-17.89 14.76zM327.66 78.73c-.47 12.56-5.5 28.42-25.28 28.42-10.05 0-18.06-1.1-29.36-1.1-11 0-16.64 3-17.59 17.9h-3c-1.26-14.29-7.22-17.9-17.43-17.9-11.46 0-22 1.1-31.87 1.1-19.94 0-25.91-17-26.22-28.42h2.67c1.57 13.19 10.52 14.76 18.05 14.76 9.58 0 22.61-1.41 33.13-1.41 11.78 0 20.73 8.48 22.93 21h.62c2.2-11.93 10.37-21 22.77-21 10.68 0 18.53 1.41 30 1.41 9.42 0 16.49-2.35 17.9-14.76z"/><circle cx="227.55" cy="66.04" r="10.52"/></svg>